<svg width="35" height="27" viewBox="0 0 35 27" fill="none" xmlns="http://www.w3.org/2000/svg">
<mask id="path-1-outside-1_170_50" maskUnits="userSpaceOnUse" x="-2" y="-1" width="39" height="29" fill="black">
<rect fill="white" x="-2" y="-1" width="39" height="29"/>
<path d="M30.4375 0H34.375L19.75 27H15.25L0.625 0H4.5625L17.5 24.75L30.4375 0Z"/>
</mask>
<path d="M30.4375 0H34.375L19.75 27H15.25L0.625 0H4.5625L17.5 24.75L30.4375 0Z" fill="black" fill-opacity="0.7"/>
<path d="M30.4375 0V-1H29.8318L29.5513 -0.463254L30.4375 0ZM34.375 0L35.2543 0.476283L36.0539 -1H34.375V0ZM19.75 27V28H20.3456L20.6293 27.4763L19.75 27ZM15.25 27L14.3707 27.4763L14.6544 28H15.25V27ZM0.625 0V-1H-1.05395L-0.254292 0.476283L0.625 0ZM4.5625 0L5.44873 -0.463254L5.16815 -1H4.5625V0ZM17.5 24.75L16.6138 25.2133L17.5 26.9086L18.3862 25.2133L17.5 24.75ZM30.4375 1H34.375V-1H30.4375V1ZM33.4957 -0.476283L18.8707 26.5237L20.6293 27.4763L35.2543 0.476283L33.4957 -0.476283ZM19.75 26H15.25V28H19.75V26ZM16.1293 26.5237L1.50429 -0.476283L-0.254292 0.476283L14.3707 27.4763L16.1293 26.5237ZM0.625 1H4.5625V-1H0.625V1ZM3.67627 0.463254L16.6138 25.2133L18.3862 24.2867L5.44873 -0.463254L3.67627 0.463254ZM18.3862 25.2133L31.3237 0.463254L29.5513 -0.463254L16.6138 24.2867L18.3862 25.2133Z" fill="black" fill-opacity="0.7" mask="url(#path-1-outside-1_170_50)"/>
</svg>
