<svg width="15" height="13" viewBox="0 0 15 13" fill="none" xmlns="http://www.w3.org/2000/svg">
<path d="M9.6167 0.515625C10.4761 0.515625 11.1987 0.569336 11.7847 0.676758C12.3755 0.779297 12.8613 0.937988 13.2422 1.15283C13.623 1.36279 13.916 1.62891 14.1211 1.95117C14.3262 2.27344 14.4751 2.65186 14.5679 3.08643C14.6655 3.521 14.7217 4.01172 14.7363 4.55859C14.7559 5.10547 14.7656 5.71094 14.7656 6.375C14.7656 7.03906 14.7559 7.64453 14.7363 8.19141C14.7217 8.73828 14.6655 9.229 14.5679 9.66357C14.4751 10.0981 14.3262 10.4766 14.1211 10.7988C13.916 11.1211 13.623 11.3896 13.2422 11.6045C12.8613 11.8145 12.3755 11.9707 11.7847 12.0732C11.1987 12.1807 10.4761 12.2344 9.6167 12.2344H5.3833C4.52393 12.2344 3.79883 12.1807 3.20801 12.0732C2.62207 11.9707 2.13867 11.8145 1.75781 11.6045C1.37695 11.3896 1.08154 11.1211 0.871582 10.7988C0.666504 10.4766 0.515137 10.0981 0.41748 9.66357C0.324707 9.229 0.270996 8.73828 0.256348 8.19141C0.241699 7.64453 0.234375 7.03906 0.234375 6.375C0.234375 5.71094 0.241699 5.10547 0.256348 4.55859C0.270996 4.01172 0.324707 3.521 0.41748 3.08643C0.515137 2.65186 0.666504 2.27344 0.871582 1.95117C1.08154 1.62891 1.37695 1.36279 1.75781 1.15283C2.13867 0.937988 2.62207 0.779297 3.20801 0.676758C3.79883 0.569336 4.52393 0.515625 5.3833 0.515625H9.6167ZM9.6167 11.0625C10.2368 11.0625 10.7593 11.0454 11.1841 11.0112C11.6138 10.9722 11.9678 10.8965 12.2461 10.7842C12.5244 10.6719 12.7393 10.5107 12.8906 10.3008C13.042 10.0908 13.1519 9.8125 13.2202 9.46582C13.2886 9.11914 13.3276 8.69434 13.3374 8.19141C13.3521 7.68359 13.3594 7.07812 13.3594 6.375C13.3594 5.67188 13.3521 5.06885 13.3374 4.56592C13.3276 4.05811 13.2886 3.63086 13.2202 3.28418C13.1519 2.9375 13.042 2.65918 12.8906 2.44922C12.7393 2.23926 12.5244 2.07812 12.2461 1.96582C11.9727 1.85352 11.6211 1.78027 11.1914 1.74609C10.7666 1.70703 10.2417 1.6875 9.6167 1.6875H5.3833C4.7583 1.6875 4.23096 1.70703 3.80127 1.74609C3.37646 1.78027 3.0249 1.85352 2.74658 1.96582C2.46826 2.07812 2.25342 2.23926 2.10205 2.44922C1.95068 2.65918 1.84082 2.9375 1.77246 3.28418C1.7041 3.63086 1.66504 4.05811 1.65527 4.56592C1.64551 5.06885 1.64062 5.67188 1.64062 6.375C1.64062 7.07812 1.64551 7.68359 1.65527 8.19141C1.66992 8.69434 1.71143 9.11914 1.77979 9.46582C1.84814 9.8125 1.95557 10.0908 2.10205 10.3008C2.25342 10.5107 2.46826 10.6719 2.74658 10.7842C3.0249 10.8965 3.37646 10.9722 3.80127 11.0112C4.23096 11.0454 4.7583 11.0625 5.3833 11.0625H9.6167Z" fill="black"/>
<path d="M11.7847 0.676758L11.6043 1.66041L11.6137 1.66203L11.7847 0.676758ZM13.2422 1.15283L12.7508 2.02385L12.7594 2.02857L13.2422 1.15283ZM14.5679 3.08643L13.5899 3.29522L13.5922 3.30568L14.5679 3.08643ZM14.7363 4.55859L13.7366 4.58537L13.737 4.59429L14.7363 4.55859ZM14.7363 8.19141L13.7369 8.15571L13.7367 8.16463L14.7363 8.19141ZM14.5679 9.66357L13.5921 9.44431L13.5899 9.4548L14.5679 9.66357ZM13.2422 11.6045L13.725 12.4803L13.7335 12.4755L13.2422 11.6045ZM11.7847 12.0732L11.6137 11.0879L11.6043 11.0896L11.7847 12.0732ZM3.20801 12.0732L3.3869 11.0894L3.38039 11.0882L3.20801 12.0732ZM1.75781 11.6045L1.26647 12.4755L1.27503 12.4802L1.75781 11.6045ZM0.871582 10.7988L0.0278722 11.3357L0.033719 11.3447L0.871582 10.7988ZM0.41748 9.66357L-0.560539 9.87236L-0.558188 9.88283L0.41748 9.66357ZM0.41748 3.08643L-0.558244 2.86716L-0.560482 2.87765L0.41748 3.08643ZM0.871582 1.95117L0.0336709 1.40526L0.0279205 1.4143L0.871582 1.95117ZM1.75781 1.15283L2.24062 2.02862L2.24913 2.02381L1.75781 1.15283ZM3.20801 0.676758L3.38039 1.66181L3.38689 1.66063L3.20801 0.676758ZM11.1841 11.0112L11.2643 12.0081L11.2746 12.0071L11.1841 11.0112ZM12.8906 10.3008L13.7018 10.8856L12.8906 10.3008ZM13.3374 8.19141L12.3378 8.16257L12.3376 8.17199L13.3374 8.19141ZM13.3374 4.56592L12.3375 4.58515L12.3378 4.59503L13.3374 4.56592ZM12.2461 1.96582L11.8662 2.89086L11.8719 2.89317L12.2461 1.96582ZM11.1914 1.74609L11.0998 2.74197L11.1121 2.74294L11.1914 1.74609ZM3.80127 1.74609L3.88147 2.74293L3.89181 2.74199L3.80127 1.74609ZM1.65527 4.56592L2.65508 4.58533L2.65509 4.58515L1.65527 4.56592ZM1.65527 8.19141L0.655409 8.21063L0.655697 8.22052L1.65527 8.19141ZM2.10205 10.3008L1.28192 10.873L1.28635 10.8793L1.29087 10.8856L2.10205 10.3008ZM3.80127 11.0112L3.70969 12.0071L3.72197 12.0081L3.80127 11.0112ZM9.6167 1.51562C10.4396 1.51562 11.0976 1.56747 11.6043 1.66036L11.965 -0.306849C11.2998 -0.428793 10.5125 -0.484375 9.6167 -0.484375V1.51562ZM11.6137 1.66203C12.1308 1.75178 12.4988 1.88163 12.7509 2.02381L13.7335 0.281854C13.2238 -0.00565025 12.6202 -0.193186 11.9557 -0.308514L11.6137 1.66203ZM12.7594 2.02857C13.0141 2.16896 13.1742 2.32579 13.2774 2.48805L14.9648 1.4143C14.6579 0.932027 14.232 0.556627 13.725 0.277091L12.7594 2.02857ZM13.2774 2.48805C13.409 2.69487 13.518 2.95843 13.5899 3.2952L15.5458 2.87765C15.4322 2.34528 15.2433 1.85201 14.9648 1.4143L13.2774 2.48805ZM13.5922 3.30568C13.6729 3.66464 13.7234 4.08923 13.7367 4.58537L15.736 4.53182C15.72 3.93421 15.6582 3.37735 15.5435 2.86717L13.5922 3.30568ZM13.737 4.59429C13.756 5.12708 13.7656 5.72043 13.7656 6.375H15.7656C15.7656 5.70144 15.7557 5.08385 15.7357 4.5229L13.737 4.59429ZM13.7656 6.375C13.7656 7.02957 13.756 7.62292 13.737 8.15571L15.7357 8.2271C15.7557 7.66615 15.7656 7.04856 15.7656 6.375H13.7656ZM13.7367 8.16463C13.7234 8.66077 13.6729 9.08536 13.5922 9.44432L15.5435 9.88283C15.6582 9.37265 15.72 8.81579 15.736 8.21818L13.7367 8.16463ZM13.5899 9.4548C13.518 9.79157 13.409 10.0551 13.2774 10.262L14.9648 11.3357C15.2433 10.898 15.4322 10.4047 15.5458 9.87235L13.5899 9.4548ZM13.2774 10.262C13.1726 10.4267 13.0095 10.5876 12.7509 10.7335L13.7335 12.4755C14.2366 12.1917 14.6594 11.8155 14.9648 11.3357L13.2774 10.262ZM12.7594 10.7288C12.5047 10.8691 12.1336 10.9977 11.6137 11.088L11.9557 13.0585C12.6174 12.9437 13.2179 12.7598 13.725 12.4802L12.7594 10.7288ZM11.6043 11.0896C11.0976 11.1825 10.4396 11.2344 9.6167 11.2344V13.2344C10.5125 13.2344 11.2998 13.1788 11.965 13.0568L11.6043 11.0896ZM9.6167 11.2344H5.3833V13.2344H9.6167V11.2344ZM5.3833 11.2344C4.56062 11.2344 3.8995 11.1826 3.38689 11.0894L3.02912 13.0571C3.69816 13.1788 4.48723 13.2344 5.3833 13.2344V11.2344ZM3.38039 11.0882C2.86608 10.9982 2.49645 10.8698 2.24059 10.7288L1.27503 12.4802C1.78089 12.7591 2.37806 12.9432 3.03563 13.0583L3.38039 11.0882ZM2.24913 10.7335C1.9889 10.5867 1.82033 10.4231 1.70945 10.2529L0.033719 11.3447C0.342759 11.819 0.765005 12.1926 1.26649 12.4755L2.24913 10.7335ZM1.71524 10.262C1.58153 10.0518 1.4696 9.78454 1.39315 9.44432L-0.558188 9.88283C-0.439328 10.4118 -0.248526 10.9013 0.0279205 11.3357L1.71524 10.262ZM1.39544 9.4548C1.31798 9.09194 1.26936 8.66372 1.25599 8.16463L-0.743294 8.21818C-0.727365 8.81284 -0.668565 9.36607 -0.560482 9.87235L1.39544 9.4548ZM1.25599 8.16463C1.24162 7.62832 1.23438 7.03194 1.23438 6.375H-0.765625C-0.765625 7.04618 -0.758225 7.66074 -0.743294 8.21818L1.25599 8.16463ZM1.23438 6.375C1.23438 5.71806 1.24162 5.12168 1.25599 4.58537L-0.743294 4.53182C-0.758225 5.08926 -0.765625 5.70382 -0.765625 6.375H1.23438ZM1.25599 4.58537C1.26936 4.08628 1.31798 3.65806 1.39544 3.2952L-0.560482 2.87765C-0.668565 3.38393 -0.727365 3.93716 -0.743294 4.53182L1.25599 4.58537ZM1.39315 3.30568C1.4696 2.96546 1.58153 2.69816 1.71524 2.48805L0.0279205 1.4143C-0.248526 1.84871 -0.439328 2.33825 -0.558188 2.86717L1.39315 3.30568ZM1.70945 2.49705C1.81874 2.32929 1.98435 2.16984 2.24059 2.02857L1.27503 0.277091C0.769558 0.55575 0.344343 0.92852 0.033719 1.40529L1.70945 2.49705ZM2.24913 2.02381C2.5024 1.88094 2.86886 1.75131 3.38039 1.66179L3.03563 -0.308273C2.37528 -0.192712 1.77495 -0.00496828 1.26649 0.281854L2.24913 2.02381ZM3.38689 1.66063C3.8995 1.56743 4.56062 1.51562 5.3833 1.51562V-0.484375C4.48723 -0.484375 3.69816 -0.428755 3.02912 -0.307112L3.38689 1.66063ZM5.3833 1.51562H9.6167V-0.484375H5.3833V1.51562ZM9.6167 12.0625C10.2527 12.0625 10.8038 12.0451 11.2643 12.008L11.1039 10.0145C10.7147 10.0458 10.2209 10.0625 9.6167 10.0625V12.0625ZM11.2746 12.0071C11.763 11.9627 12.2212 11.8726 12.6203 11.7115L11.8719 9.85683C11.7144 9.92039 11.4646 9.98161 11.0935 10.0153L11.2746 12.0071ZM12.6203 11.7115C13.0452 11.5401 13.4233 11.2718 13.7018 10.8856L12.0794 9.71598C12.0552 9.74966 12.0036 9.80368 11.8719 9.85683L12.6203 11.7115ZM13.7018 10.8856C13.9621 10.5245 14.1147 10.0985 14.2013 9.65928L12.2391 9.27236C12.189 9.52648 12.1219 9.65714 12.0794 9.71598L13.7018 10.8856ZM14.2013 9.65928C14.2846 9.23684 14.3267 8.74986 14.3372 8.21082L12.3376 8.17199C12.3285 8.63881 12.2925 9.00144 12.2391 9.27236L14.2013 9.65928ZM14.337 8.22024C14.352 7.69997 14.3594 7.08439 14.3594 6.375H12.3594C12.3594 7.07186 12.3521 7.66722 12.3378 8.16257L14.337 8.22024ZM14.3594 6.375C14.3594 5.66565 14.352 5.05239 14.337 4.5368L12.3378 4.59503C12.3521 5.08531 12.3594 5.6781 12.3594 6.375H14.3594ZM14.3372 4.54669C14.3268 4.00338 14.2847 3.51368 14.2013 3.09072L12.2391 3.47764C12.2924 3.74804 12.3285 4.11283 12.3376 4.58515L14.3372 4.54669ZM14.2013 3.09072C14.1147 2.65148 13.9621 2.2255 13.7018 1.86442L12.0794 3.03402C12.1219 3.09286 12.189 3.22352 12.2391 3.47764L14.2013 3.09072ZM13.7018 1.86442C13.4233 1.47817 13.0452 1.20993 12.6203 1.03847L11.8719 2.89317C12.0036 2.94632 12.0552 3.00034 12.0794 3.03402L13.7018 1.86442ZM12.626 1.0408C12.2237 0.875566 11.7609 0.788232 11.2707 0.749243L11.1121 2.74294C11.4813 2.77231 11.7216 2.83146 11.8662 2.89084L12.626 1.0408ZM11.283 0.750295C10.8173 0.707475 10.2596 0.6875 9.6167 0.6875V2.6875C10.2238 2.6875 10.7159 2.70659 11.0998 2.74189L11.283 0.750295ZM9.6167 0.6875H5.3833V2.6875H9.6167V0.6875ZM5.3833 0.6875C4.74018 0.6875 4.18056 0.707489 3.71073 0.750201L3.89181 2.74199C4.28136 2.70657 4.77642 2.6875 5.3833 2.6875V0.6875ZM3.72107 0.749315C3.23405 0.788501 2.77491 0.87605 2.37239 1.03847L3.12078 2.89317C3.2749 2.83098 3.51888 2.77205 3.88147 2.74287L3.72107 0.749315ZM2.37239 1.03847C1.94747 1.20993 1.56933 1.47817 1.29087 1.86442L2.91323 3.03402C2.93751 3.00034 2.98905 2.94632 3.12078 2.89317L2.37239 1.03847ZM1.29087 1.86442C1.03056 2.2255 0.877963 2.65148 0.791352 3.09072L2.75357 3.47764C2.80368 3.22352 2.87081 3.09286 2.91323 3.03402L1.29087 1.86442ZM0.791352 3.09072C0.707951 3.51368 0.665907 4.00338 0.655458 4.54669L2.65509 4.58515C2.66417 4.11283 2.70025 3.74804 2.75357 3.47764L0.791352 3.09072ZM0.655462 4.5465C0.645532 5.05787 0.640625 5.66773 0.640625 6.375H2.64062C2.64062 5.67602 2.64548 5.07982 2.65508 4.58533L0.655462 4.5465ZM0.640625 6.375C0.640625 7.0823 0.645533 7.69451 0.655458 8.21063L2.65509 8.17218C2.64548 7.67267 2.64062 7.07395 2.64062 6.375H0.640625ZM0.655697 8.22052C0.671339 8.75755 0.716207 9.24104 0.798677 9.65928L2.76089 9.27236C2.70664 8.99724 2.6685 8.63113 2.65485 8.16229L0.655697 8.22052ZM0.798677 9.65928C0.884305 10.0935 1.03202 10.5148 1.28192 10.873L2.92218 9.7286C2.87911 9.66687 2.81198 9.53146 2.76089 9.27236L0.798677 9.65928ZM1.29087 10.8856C1.56933 11.2718 1.94747 11.5401 2.37239 11.7115L3.12078 9.85683C2.98905 9.80368 2.93751 9.74966 2.91323 9.71598L1.29087 10.8856ZM2.37239 11.7115C2.77025 11.8721 3.22515 11.9625 3.7097 12.007L3.89284 10.0154C3.52778 9.98186 3.27955 9.9209 3.12078 9.85683L2.37239 11.7115ZM3.72197 12.0081C4.18685 12.0451 4.74246 12.0625 5.3833 12.0625V10.0625C4.77414 10.0625 4.27506 10.0458 3.88056 10.0144L3.72197 12.0081ZM5.3833 12.0625H9.6167V10.0625H5.3833V12.0625Z" fill="black"/>
</svg>
