<svg width="15" height="12" viewBox="0 0 15 12" fill="none" xmlns="http://www.w3.org/2000/svg">
<path d="M12.8906 0.75H14.5312L8.4375 12H6.5625L0.46875 0.75H2.10938L7.5 11.0625L12.8906 0.75Z" fill="black"/>
<path d="M12.8906 0.75V-0.25H12.285L12.0044 0.286746L12.8906 0.75ZM14.5312 0.75L15.4105 1.22628L16.2102 -0.25H14.5312V0.75ZM8.4375 12V13H9.03311L9.31679 12.4763L8.4375 12ZM6.5625 12L5.68321 12.4763L5.96689 13H6.5625V12ZM0.46875 0.75V-0.25H-1.2102L-0.410542 1.22628L0.46875 0.75ZM2.10938 0.75L2.9956 0.286746L2.71503 -0.25H2.10938V0.75ZM7.5 11.0625L6.61377 11.5258L7.5 13.2211L8.38623 11.5258L7.5 11.0625ZM12.8906 1.75H14.5312V-0.25H12.8906V1.75ZM13.652 0.273717L7.55821 11.5237L9.31679 12.4763L15.4105 1.22628L13.652 0.273717ZM8.4375 11H6.5625V13H8.4375V11ZM7.44179 11.5237L1.34804 0.273717L-0.410542 1.22628L5.68321 12.4763L7.44179 11.5237ZM0.46875 1.75H2.10938V-0.25H0.46875V1.75ZM1.22315 1.21325L6.61377 11.5258L8.38623 10.5992L2.9956 0.286746L1.22315 1.21325ZM8.38623 11.5258L13.7768 1.21325L12.0044 0.286746L6.61377 10.5992L8.38623 11.5258Z" fill="black"/>
</svg>
