<svg width="82" height="16" viewBox="0 0 82 16" fill="none" xmlns="http://www.w3.org/2000/svg">
<path d="M17.1875 0H19.375L11.25 15H8.75L0.625 0H2.8125L10 13.75L17.1875 0ZM39.3848 0V7.5C39.3848 8.38542 39.3717 9.19271 39.3457 9.92188C39.3262 10.651 39.2513 11.3053 39.1211 11.8848C38.9974 12.4642 38.7988 12.9688 38.5254 13.3984C38.252 13.8281 37.8613 14.1862 37.3535 14.4727C36.8457 14.7526 36.1979 14.9609 35.4102 15.0977C34.6289 15.2409 33.6654 15.3125 32.5195 15.3125H28.125C26.9792 15.3125 26.0124 15.2409 25.2246 15.0977C24.4434 14.9609 23.7988 14.7526 23.291 14.4727C22.7832 14.1862 22.3893 13.8281 22.1094 13.3984C21.8359 12.9688 21.6341 12.4642 21.5039 11.8848C21.3802 11.3053 21.3086 10.651 21.2891 9.92188C21.2695 9.19271 21.2598 8.38542 21.2598 7.5V0H23.1348V7.5C23.1348 8.4375 23.1413 9.24479 23.1543 9.92188C23.1738 10.5924 23.2292 11.1589 23.3203 11.6211C23.4115 12.0833 23.5547 12.4544 23.75 12.7344C23.9518 13.0143 24.2383 13.2292 24.6094 13.3789C24.9805 13.5286 25.4492 13.6296 26.0156 13.6816C26.5885 13.7272 27.2917 13.75 28.125 13.75H32.5195C33.3464 13.75 34.0462 13.7272 34.6191 13.6816C35.1921 13.6296 35.6608 13.5286 36.0254 13.3789C36.3965 13.2292 36.6829 13.0143 36.8848 12.7344C37.0866 12.4544 37.2331 12.0833 37.3242 11.6211C37.4219 11.1589 37.4772 10.5924 37.4902 9.92188C37.5033 9.24479 37.5098 8.4375 37.5098 7.5L37.5 0H39.3848ZM42.5195 15V0H55.0293C55.9668 0 56.722 0.078125 57.2949 0.234375C57.8678 0.384115 58.3073 0.608724 58.6133 0.908203C58.9258 1.20117 59.1341 1.56901 59.2383 2.01172C59.3424 2.45443 59.3945 2.96224 59.3945 3.53516C59.3945 3.95182 59.3587 4.31966 59.2871 4.63867C59.2155 4.95768 59.1211 5.23438 59.0039 5.46875C58.8867 5.70312 58.7533 5.90169 58.6035 6.06445C58.4538 6.2207 58.3008 6.35091 58.1445 6.45508C57.7799 6.70247 57.3633 6.84245 56.8945 6.875C57.4805 6.90755 58.0013 7.05078 58.457 7.30469C58.6523 7.41536 58.8411 7.55534 59.0234 7.72461C59.2122 7.88737 59.3783 8.09245 59.5215 8.33984C59.6712 8.58073 59.7917 8.86719 59.8828 9.19922C59.974 9.52474 60.0195 9.90234 60.0195 10.332C60.0195 10.8529 59.9935 11.3314 59.9414 11.7676C59.8958 12.1973 59.7982 12.5846 59.6484 12.9297C59.4987 13.2747 59.2839 13.5775 59.0039 13.8379C58.724 14.0983 58.3496 14.3164 57.8809 14.4922C57.4186 14.6615 56.849 14.7884 56.1719 14.873C55.5013 14.9577 54.6973 15 53.7598 15H42.5195ZM53.1348 13.4375C53.8639 13.4375 54.4954 13.4277 55.0293 13.4082C55.5632 13.3822 56.0156 13.3333 56.3867 13.2617C56.7578 13.1836 57.0573 13.0762 57.2852 12.9395C57.513 12.7962 57.6888 12.6107 57.8125 12.3828C57.9427 12.1484 58.0306 11.8652 58.0762 11.5332C58.1217 11.2012 58.1445 10.8008 58.1445 10.332C58.1445 9.96745 58.1217 9.65169 58.0762 9.38477C58.0306 9.11133 57.9427 8.88346 57.8125 8.70117C57.6888 8.51237 57.513 8.36263 57.2852 8.25195C57.0573 8.13477 56.7578 8.04362 56.3867 7.97852C56.0156 7.91341 55.5632 7.87109 55.0293 7.85156C54.4954 7.82552 53.8639 7.8125 53.1348 7.8125H44.3945V13.4375H53.1348ZM53.1348 6.25C53.7728 6.25 54.3229 6.23698 54.7852 6.21094C55.2474 6.1849 55.6413 6.13607 55.9668 6.06445C56.2923 5.99284 56.556 5.89518 56.7578 5.77148C56.9596 5.64128 57.1159 5.47526 57.2266 5.27344C57.3438 5.07161 57.4219 4.83073 57.4609 4.55078C57.5 4.26432 57.5195 3.92578 57.5195 3.53516C57.5195 3.11849 57.474 2.77995 57.3828 2.51953C57.2917 2.25911 57.1289 2.06055 56.8945 1.92383C56.6602 1.7806 56.3411 1.6862 55.9375 1.64062C55.5404 1.58854 55.0293 1.5625 54.4043 1.5625H44.3945V6.25H53.1348ZM77.832 11.5625H65.957L64.082 15H61.8945L70.6445 0H73.1445L81.8945 15H79.707L77.832 11.5625ZM76.8945 10L71.8945 1.25L66.8945 10H76.8945Z" fill="black"/>
<path d="M17.1875 0V-1H16.5818L16.3013 -0.463254L17.1875 0ZM19.375 0L20.2543 0.476283L21.0539 -1H19.375V0ZM11.25 15V16H11.8456L12.1293 15.4763L11.25 15ZM8.75 15L7.87071 15.4763L8.15439 16H8.75V15ZM0.625 0V-1H-1.05395L-0.254292 0.476283L0.625 0ZM2.8125 0L3.69873 -0.463254L3.41815 -1H2.8125V0ZM10 13.75L9.11377 14.2133L10 15.9086L10.8862 14.2133L10 13.75ZM17.1875 1H19.375V-1H17.1875V1ZM18.4957 -0.476283L10.3707 14.5237L12.1293 15.4763L20.2543 0.476283L18.4957 -0.476283ZM11.25 14H8.75V16H11.25V14ZM9.62929 14.5237L1.50429 -0.476283L-0.254292 0.476283L7.87071 15.4763L9.62929 14.5237ZM0.625 1H2.8125V-1H0.625V1ZM1.92627 0.463254L9.11377 14.2133L10.8862 13.2867L3.69873 -0.463254L1.92627 0.463254ZM10.8862 14.2133L18.0737 0.463254L16.3013 -0.463254L9.11377 13.2867L10.8862 14.2133ZM39.3848 0H40.3848V-1H39.3848V0ZM39.3457 9.92188L38.3463 9.88618L38.3461 9.8951L39.3457 9.92188ZM39.1211 11.8848L38.1454 11.6655L38.1431 11.676L39.1211 11.8848ZM37.3535 14.4727L37.8363 15.3484L37.8448 15.3436L37.3535 14.4727ZM35.4102 15.0977L35.2392 14.1123L35.2298 14.114L35.4102 15.0977ZM25.2246 15.0977L25.4035 14.1138L25.397 14.1126L25.2246 15.0977ZM23.291 14.4727L22.7997 15.3437L22.8082 15.3484L23.291 14.4727ZM22.1094 13.3984L21.2657 13.9353L21.2715 13.9443L22.1094 13.3984ZM21.5039 11.8848L20.5259 12.0936L20.5282 12.104L21.5039 11.8848ZM21.2598 0V-1H20.2598V0H21.2598ZM23.1348 0H24.1348V-1H23.1348V0ZM23.1543 9.92188L22.1544 9.9411L22.1547 9.95099L23.1543 9.92188ZM23.75 12.7344L22.9299 13.3066L22.9343 13.3129L22.9388 13.3192L23.75 12.7344ZM26.0156 13.6816L25.9241 14.6775L25.9363 14.6785L26.0156 13.6816ZM34.6191 13.6816L34.6984 14.6786L34.7097 14.6775L34.6191 13.6816ZM36.0254 13.3789L35.6512 12.4515L35.6455 12.4539L36.0254 13.3789ZM37.3242 11.6211L36.3457 11.4144L36.3431 11.4276L37.3242 11.6211ZM37.4902 9.92188L38.49 9.94129L38.49 9.9411L37.4902 9.92188ZM37.5098 7.5L38.5098 7.5L38.5098 7.4987L37.5098 7.5ZM37.5 0V-1H36.4987L36.5 0.00130208L37.5 0ZM38.3848 0V7.5H40.3848V0H38.3848ZM38.3848 7.5C38.3848 8.37592 38.3719 9.17109 38.3463 9.88618L40.3451 9.95757C40.3716 9.21432 40.3848 8.39491 40.3848 7.5H38.3848ZM38.3461 9.8951C38.3279 10.5735 38.2586 11.1617 38.1454 11.6655L40.0968 12.104C40.244 11.449 40.3245 10.7286 40.3453 9.94865L38.3461 9.8951ZM38.1431 11.676C38.0403 12.1576 37.8817 12.5473 37.6817 12.8616L39.3691 13.9353C39.716 13.3902 39.9545 12.7708 40.0991 12.0935L38.1431 11.676ZM37.6817 12.8616C37.5085 13.1337 37.2478 13.3842 36.8622 13.6017L37.8448 15.3436C38.4749 14.9882 38.9954 14.5225 39.3691 13.9353L37.6817 12.8616ZM36.8707 13.5969C36.4891 13.8073 35.956 13.988 35.2392 14.1124L35.5812 16.0829C36.4398 15.9339 37.2023 15.6979 37.8363 15.3484L36.8707 13.5969ZM35.2298 14.114C34.5278 14.2428 33.6289 14.3125 32.5195 14.3125V16.3125C33.7018 16.3125 34.73 16.239 35.5905 16.0813L35.2298 14.114ZM32.5195 14.3125H28.125V16.3125H32.5195V14.3125ZM28.125 14.3125C27.0159 14.3125 26.113 14.2428 25.4035 14.1138L25.0457 16.0815C25.9117 16.239 26.9425 16.3125 28.125 16.3125V14.3125ZM25.397 14.1126C24.6874 13.9884 24.1566 13.808 23.7738 13.5969L22.8082 15.3484C23.441 15.6973 24.1994 15.9334 25.0522 16.0827L25.397 14.1126ZM23.7823 13.6017C23.3952 13.3833 23.1281 13.1302 22.9472 12.8526L21.2715 13.9443C21.6505 14.5261 22.1713 14.9891 22.7997 15.3436L23.7823 13.6017ZM22.953 12.8616C22.751 12.544 22.5886 12.1506 22.4796 11.6655L20.5282 12.104C20.6796 12.7778 20.9209 13.3935 21.2657 13.9353L22.953 12.8616ZM22.4819 11.676C22.3735 11.1683 22.307 10.5765 22.2887 9.8951L20.2894 9.94865C20.3102 10.7256 20.3869 11.4424 20.5259 12.0935L22.4819 11.676ZM22.2887 9.8951C22.2695 9.1765 22.2598 8.3783 22.2598 7.5H20.2598C20.2598 8.39254 20.2696 9.20892 20.2894 9.94865L22.2887 9.8951ZM22.2598 7.5V0H20.2598V7.5H22.2598ZM21.2598 1H23.1348V-1H21.2598V1ZM22.1348 0V7.5H24.1348V0H22.1348ZM22.1348 7.5C22.1348 8.44168 22.1413 9.25571 22.1545 9.9411L24.1541 9.90265C24.1413 9.23387 24.1348 8.43332 24.1348 7.5H22.1348ZM22.1547 9.95099C22.1752 10.6557 22.2339 11.2808 22.3392 11.8146L24.3014 11.4276C24.2244 11.037 24.1724 10.5292 24.1539 9.89276L22.1547 9.95099ZM22.3392 11.8146C22.4476 12.3644 22.6311 12.8784 22.9299 13.3066L24.5701 12.1622C24.4782 12.0305 24.3753 11.8023 24.3014 11.4276L22.3392 11.8146ZM22.9388 13.3192C23.2677 13.7754 23.7175 14.0974 24.2352 14.3063L24.9836 12.4516C24.7591 12.361 24.6359 12.2532 24.5612 12.1496L22.9388 13.3192ZM24.2352 14.3063C24.7258 14.5042 25.2979 14.6199 25.9241 14.6774L26.1072 12.6858C25.6005 12.6393 25.2351 12.5531 24.9836 12.4516L24.2352 14.3063ZM25.9363 14.6785C26.5444 14.7269 27.2758 14.75 28.125 14.75V12.75C27.3075 12.75 26.6326 12.7276 26.0949 12.6848L25.9363 14.6785ZM28.125 14.75H32.5195V12.75H28.125V14.75ZM32.5195 14.75C33.3624 14.75 34.0905 14.7269 34.6984 14.6785L34.5398 12.6848C34.002 12.7276 33.3303 12.75 32.5195 12.75V14.75ZM34.7097 14.6775C35.3407 14.6202 35.9165 14.5047 36.4053 14.3039L35.6455 12.4539C35.4051 12.5526 35.0434 12.6389 34.5286 12.6857L34.7097 14.6775ZM36.3996 14.3063C36.9173 14.0974 37.367 13.7754 37.6959 13.3192L36.0736 12.1496C35.9989 12.2532 35.8757 12.361 35.6512 12.4516L36.3996 14.3063ZM37.6959 13.3192C38.0067 12.8881 38.1959 12.3693 38.3053 11.8146L36.3431 11.4276C36.2702 11.7973 36.1665 12.0208 36.0736 12.1496L37.6959 13.3192ZM38.3026 11.8278C38.4174 11.2843 38.4763 10.6509 38.49 9.94129L36.4904 9.90246C36.4782 10.534 36.4263 11.0334 36.3458 11.4144L38.3026 11.8278ZM38.49 9.9411C38.5032 9.25571 38.5098 8.44168 38.5098 7.5H36.5098C36.5098 8.43332 36.5033 9.23387 36.4904 9.90265L38.49 9.9411ZM38.5098 7.4987L38.5 -0.00130208L36.5 0.00130208L36.5098 7.5013L38.5098 7.4987ZM37.5 1H39.3848V-1H37.5V1ZM42.5195 15H41.5195V16H42.5195V15ZM42.5195 0V-1H41.5195V0H42.5195ZM57.2949 0.234375L57.0318 1.19919L57.0421 1.20188L57.2949 0.234375ZM58.6133 0.908203L57.9138 1.62287L57.9215 1.63039L57.9293 1.63774L58.6133 0.908203ZM58.6035 6.06445L59.3255 6.75636L59.3326 6.74901L59.3394 6.74151L58.6035 6.06445ZM58.1445 6.45508L57.5898 5.623L57.583 5.6276L58.1445 6.45508ZM56.8945 6.875L56.8253 5.8774L56.8391 7.87346L56.8945 6.875ZM58.457 7.30469L58.9501 6.43464L58.9437 6.43112L58.457 7.30469ZM59.0234 7.72461L58.343 8.4574L58.3565 8.46997L58.3705 8.48202L59.0234 7.72461ZM59.5215 8.33984L58.6561 8.84088L58.6639 8.85446L58.6722 8.86778L59.5215 8.33984ZM59.8828 9.19922L58.9185 9.46394L58.9198 9.46885L59.8828 9.19922ZM59.9414 11.7676L58.9484 11.649L58.947 11.6621L59.9414 11.7676ZM59.0039 13.8379L58.3228 13.1057L59.0039 13.8379ZM57.8809 14.4922L58.2247 15.4312L58.232 15.4285L57.8809 14.4922ZM56.1719 14.873L56.0478 13.8808L56.0467 13.8809L56.1719 14.873ZM55.0293 13.4082L55.0659 14.4076L55.078 14.407L55.0293 13.4082ZM56.3867 13.2617L56.5762 14.2436L56.5845 14.242L56.5927 14.2403L56.3867 13.2617ZM57.2852 12.9395L57.7997 13.7969L57.8085 13.7916L57.8173 13.7861L57.2852 12.9395ZM57.8125 12.3828L56.9383 11.8971L56.9336 11.9057L57.8125 12.3828ZM58.0762 9.38477L57.0898 9.54917L57.0904 9.55306L58.0762 9.38477ZM57.8125 8.70117L56.976 9.2492L56.9871 9.26603L56.9988 9.28241L57.8125 8.70117ZM57.2852 8.25195L56.8278 9.14124L56.838 9.14647L56.8483 9.15146L57.2852 8.25195ZM55.0293 7.85156L54.9806 8.85045L54.9927 8.85089L55.0293 7.85156ZM44.3945 7.8125V6.8125H43.3945V7.8125H44.3945ZM44.3945 13.4375H43.3945V14.4375H44.3945V13.4375ZM56.7578 5.77148L57.2804 6.62409L57.2902 6.61805L57.2999 6.61178L56.7578 5.77148ZM57.2266 5.27344L56.3618 4.7713L56.3556 4.78188L56.3498 4.7926L57.2266 5.27344ZM57.4609 4.55078L58.4513 4.68898L58.4518 4.68589L57.4609 4.55078ZM56.8945 1.92383L56.3731 2.77711L56.3818 2.78245L56.3907 2.78761L56.8945 1.92383ZM55.9375 1.64062L55.8075 2.63213L55.8164 2.6333L55.8253 2.63431L55.9375 1.64062ZM44.3945 1.5625V0.5625H43.3945V1.5625H44.3945ZM44.3945 6.25H43.3945V7.25H44.3945V6.25ZM43.5195 15V0H41.5195V15H43.5195ZM42.5195 1H55.0293V-1H42.5195V1ZM55.0293 1C55.9229 1 56.5793 1.07572 57.0318 1.19914L57.558 -0.730389C56.8648 -0.919465 56.0107 -1 55.0293 -1V1ZM57.0421 1.20188C57.5081 1.32369 57.7708 1.48292 57.9138 1.62287L59.3127 0.193534C58.8438 -0.265471 58.2276 -0.55546 57.5478 -0.733125L57.0421 1.20188ZM57.9293 1.63774C58.0891 1.78753 58.2029 1.9773 58.2649 2.24076L60.2117 1.78268C60.0654 1.16072 59.7624 0.614809 59.2972 0.178666L57.9293 1.63774ZM58.2649 2.24076C58.3475 2.59197 58.3945 3.02042 58.3945 3.53516H60.3945C60.3945 2.90406 60.3374 2.31688 60.2117 1.78268L58.2649 2.24076ZM58.3945 3.53516C58.3945 3.89716 58.3632 4.18897 58.3114 4.41963L60.2628 4.85771C60.3543 4.45035 60.3945 4.00648 60.3945 3.53516H58.3945ZM58.3114 4.41963C58.2534 4.67816 58.1828 4.87491 58.1095 5.02154L59.8983 5.91596C60.0594 5.59384 60.1776 5.2372 60.2628 4.85771L58.3114 4.41963ZM58.1095 5.02154C58.0266 5.18723 57.9436 5.30478 57.8676 5.3874L59.3394 6.74151C59.5629 6.49861 59.7468 6.21902 59.8983 5.91596L58.1095 5.02154ZM57.8815 5.37255C57.7748 5.48392 57.677 5.56491 57.5898 5.62303L58.6992 7.28713C58.9246 7.13691 59.1328 6.95749 59.3255 6.75636L57.8815 5.37255ZM57.583 5.6276C57.3744 5.76919 57.1299 5.85624 56.8253 5.8774L56.9638 7.8726C57.5966 7.82865 58.1855 7.63575 58.706 7.28255L57.583 5.6276ZM56.8391 7.87346C57.2927 7.89866 57.6627 8.00688 57.9703 8.17826L58.9437 6.43112C58.3399 6.09469 57.6683 5.91644 56.95 5.87654L56.8391 7.87346ZM57.964 8.17471C58.0849 8.24321 58.2116 8.33538 58.343 8.4574L59.7039 6.99182C59.4707 6.77529 59.2198 6.58752 58.95 6.43467L57.964 8.17471ZM58.3705 8.48202C58.4632 8.56195 58.5607 8.67624 58.6561 8.84088L60.3869 7.83881C60.1958 7.50865 59.9613 7.21279 59.6764 6.9672L58.3705 8.48202ZM58.6722 8.86778C58.7616 9.01165 58.8476 9.20562 58.9185 9.46394L60.8471 8.9345C60.7358 8.52875 60.5808 8.14981 60.3708 7.81191L58.6722 8.86778ZM58.9198 9.46885C58.9808 9.68662 59.0195 9.97011 59.0195 10.332H61.0195C61.0195 9.83458 60.9671 9.36286 60.8458 8.92959L58.9198 9.46885ZM59.0195 10.332C59.0195 10.8203 58.9951 11.2586 58.9485 11.649L60.9344 11.8861C60.9919 11.4042 61.0195 10.8855 61.0195 10.332H59.0195ZM58.947 11.6621C58.9106 12.0056 58.835 12.2923 58.7311 12.5316L60.5658 13.3278C60.7614 12.877 60.8811 12.3889 60.9358 11.873L58.947 11.6621ZM58.7311 12.5316C58.6372 12.7481 58.5035 12.9376 58.3228 13.1057L59.685 14.5701C60.0642 14.2174 60.3602 13.8014 60.5658 13.3278L58.7311 12.5316ZM58.3228 13.1057C58.1631 13.2543 57.9122 13.4124 57.5297 13.5559L58.232 15.4285C58.787 15.2204 59.2849 14.9423 59.685 14.5701L58.3228 13.1057ZM57.537 13.5532C57.1671 13.6886 56.6764 13.8022 56.0478 13.8808L56.2959 15.8653C57.0215 15.7746 57.6701 15.6343 58.2247 15.4312L57.537 13.5532ZM56.0467 13.8809C55.43 13.9587 54.6701 14 53.7598 14V16C54.7244 16 55.5726 15.9566 56.2971 15.8652L56.0467 13.8809ZM53.7598 14H42.5195V16H53.7598V14ZM53.1348 14.4375C53.8721 14.4375 54.5164 14.4276 55.0659 14.4075L54.9927 12.4089C54.4745 12.4278 53.8558 12.4375 53.1348 12.4375V14.4375ZM55.078 14.407C55.6415 14.3795 56.144 14.327 56.5762 14.2436L56.1972 12.2798C55.8872 12.3397 55.4848 12.3848 54.9806 12.4094L55.078 14.407ZM56.5927 14.2403C57.0301 14.1482 57.4452 14.0096 57.7997 13.7969L56.7707 12.082C56.6694 12.1427 56.4855 12.219 56.1807 12.2832L56.5927 14.2403ZM57.8173 13.7861C58.1848 13.5551 58.4826 13.2445 58.6914 12.8599L56.9336 11.9057C56.8951 11.9768 56.8412 12.0373 56.753 12.0928L57.8173 13.7861ZM58.6867 12.8685C58.89 12.5024 59.0085 12.0944 59.0669 11.6692L57.0855 11.3972C57.0527 11.636 56.9954 11.7944 56.9383 11.8972L58.6867 12.8685ZM59.0669 11.6692C59.1205 11.2783 59.1445 10.8298 59.1445 10.332H57.1445C57.1445 10.7717 57.123 11.124 57.0855 11.3972L59.0669 11.6692ZM59.1445 10.332C59.1445 9.92902 59.1196 9.55428 59.0619 9.21647L57.0904 9.55306C57.1239 9.74911 57.1445 10.0059 57.1445 10.332H59.1445ZM59.0626 9.22037C58.9978 8.83157 58.8635 8.45211 58.6262 8.11993L56.9988 9.28241C57.0219 9.31482 57.0634 9.39109 57.0898 9.54916L59.0626 9.22037ZM58.649 8.15315C58.4146 7.79537 58.0921 7.53216 57.7221 7.35244L56.8483 9.15146C56.934 9.1931 56.963 9.22937 56.976 9.2492L58.649 8.15315ZM57.7425 7.36267C57.3938 7.18333 56.9877 7.06868 56.5595 6.99356L56.2139 8.96347C56.5279 9.01856 56.7208 9.08621 56.8278 9.14124L57.7425 7.36267ZM56.5595 6.99356C56.1291 6.91805 55.6282 6.8728 55.0659 6.85223L54.9927 8.85089C55.4981 8.86938 55.9021 8.90877 56.2139 8.96347L56.5595 6.99356ZM55.078 6.85275C54.5233 6.82569 53.8748 6.8125 53.1348 6.8125V8.8125C53.8531 8.8125 54.4676 8.82535 54.9806 8.85037L55.078 6.85275ZM53.1348 6.8125H44.3945V8.8125H53.1348V6.8125ZM43.3945 7.8125V13.4375H45.3945V7.8125H43.3945ZM44.3945 14.4375H53.1348V12.4375H44.3945V14.4375ZM53.1348 7.25C53.7851 7.25 54.3549 7.23676 54.8414 7.20935L54.7289 5.21252C54.2909 5.2372 53.7605 5.25 53.1348 5.25V7.25ZM54.8414 7.20935C55.3381 7.18137 55.7882 7.12765 56.1817 7.0411L55.7519 5.08781C55.4943 5.14449 55.1567 5.18842 54.7289 5.21252L54.8414 7.20935ZM56.1817 7.0411C56.5751 6.95453 56.9535 6.8244 57.2804 6.62409L56.2353 4.91888C56.1584 4.96596 56.0095 5.03114 55.7519 5.08781L56.1817 7.0411ZM57.2999 6.61178C57.6352 6.3955 57.9092 6.1083 58.1034 5.75427L56.3498 4.7926C56.3225 4.84222 56.2841 4.88705 56.2157 4.93119L57.2999 6.61178ZM58.0914 5.77557C58.2858 5.44076 58.3981 5.07082 58.4513 4.68898L56.4705 4.41259C56.4457 4.59064 56.4017 4.70247 56.3618 4.7713L58.0914 5.77557ZM58.4518 4.68589C58.4986 4.34224 58.5195 3.95642 58.5195 3.53516H56.5195C56.5195 3.89514 56.5014 4.18641 56.4701 4.41567L58.4518 4.68589ZM58.5195 3.53516C58.5195 3.05743 58.4688 2.59536 58.3267 2.18918L56.439 2.84988C56.4791 2.96453 56.5195 3.17955 56.5195 3.53516H58.5195ZM58.3267 2.18918C58.1584 1.70844 57.842 1.31879 57.3984 1.06005L56.3907 2.78761C56.4109 2.79944 56.4173 2.80712 56.419 2.80922C56.4209 2.81152 56.4291 2.82178 56.439 2.84988L58.3267 2.18918ZM57.416 1.07055C57.012 0.823695 56.5347 0.7017 56.0497 0.646938L55.8253 2.63431C56.1476 2.6707 56.3083 2.7375 56.3731 2.77711L57.416 1.07055ZM56.0675 0.649115C55.6104 0.589167 55.0516 0.5625 54.4043 0.5625V2.5625C55.007 2.5625 55.4703 2.58792 55.8075 2.63213L56.0675 0.649115ZM54.4043 0.5625H44.3945V2.5625H54.4043V0.5625ZM43.3945 1.5625V6.25H45.3945V1.5625H43.3945ZM44.3945 7.25H53.1348V5.25H44.3945V7.25ZM77.832 11.5625L78.7099 11.0836L78.4257 10.5625H77.832V11.5625ZM65.957 11.5625V10.5625H65.3634L65.0791 11.0836L65.957 11.5625ZM64.082 15V16H64.6757L64.9599 15.4789L64.082 15ZM61.8945 15L61.0308 14.4961L60.1535 16H61.8945V15ZM70.6445 0V-1H70.0702L69.7808 -0.503871L70.6445 0ZM73.1445 0L74.0083 -0.503871L73.7189 -1H73.1445V0ZM81.8945 15V16H83.6356L82.7583 14.4961L81.8945 15ZM79.707 15L78.8291 15.4789L79.1134 16H79.707V15ZM76.8945 10V11H78.6177L77.7628 9.50386L76.8945 10ZM71.8945 1.25L72.7628 0.753861L71.8945 -0.765564L71.0263 0.753861L71.8945 1.25ZM66.8945 10L66.0263 9.50386L65.1714 11H66.8945V10ZM77.832 10.5625H65.957V12.5625H77.832V10.5625ZM65.0791 11.0836L63.2041 14.5211L64.9599 15.4789L66.8349 12.0414L65.0791 11.0836ZM64.082 14H61.8945V16H64.082V14ZM62.7583 15.5039L71.5083 0.503871L69.7808 -0.503871L61.0308 14.4961L62.7583 15.5039ZM70.6445 1H73.1445V-1H70.6445V1ZM72.2808 0.503871L81.0308 15.5039L82.7583 14.4961L74.0083 -0.503871L72.2808 0.503871ZM81.8945 14H79.707V16H81.8945V14ZM80.5849 14.5211L78.7099 11.0836L76.9541 12.0414L78.8291 15.4789L80.5849 14.5211ZM77.7628 9.50386L72.7628 0.753861L71.0263 1.74614L76.0263 10.4961L77.7628 9.50386ZM71.0263 0.753861L66.0263 9.50386L67.7628 10.4961L72.7628 1.74614L71.0263 0.753861ZM66.8945 11H76.8945V9H66.8945V11Z" fill="black"/>
</svg>
